<svg xmlns="http://www.w3.org/2000/svg"  viewBox="0 0 48 48" width="48px" height="48px"><path d="M 26.558594 0.40039062 C 28.661594 5.4693906 19.012234 8.6032188 18.115234 12.824219 C 17.295234 16.708219 23.844609 21.21875 23.849609 21.21875 C 22.855609 19.61575 22.135719 18.287156 21.136719 15.785156 C 19.446719 11.559156 31.409594 7.7393906 26.558594 0.40039062 z M 32.957031 7.4257812 C 32.957031 7.4257812 24.507172 7.9840938 24.076172 13.621094 C 23.885172 16.127094 26.297188 17.463922 26.367188 19.294922 C 26.423188 20.784922 24.925781 22.025391 24.925781 22.025391 C 24.925781 22.025391 27.642234 21.49175 28.490234 19.21875 C 29.431234 16.69475 26.664219 14.966312 26.949219 12.945312 C 27.215219 11.015313 32.957031 7.4257813 32.957031 7.4257812 z M 18.044922 22.025391 C 18.044922 22.025391 8.6191406 21.861422 8.6191406 24.732422 C 8.6191406 27.725422 21.361797 27.939656 30.466797 26.097656 C 30.466797 26.097656 32.896922 24.364844 33.544922 23.714844 C 27.580922 24.980844 13.962891 25.151734 13.962891 24.052734 C 13.962891 23.039734 18.044922 22.025391 18.044922 22.025391 z M 37.576172 22.123047 C 36.48017 22.070729 35.258297 22.453328 34.154297 23.283203 C 36.324297 22.796203 38.152344 24.177531 38.152344 25.769531 C 38.152344 29.358531 33.179688 32.748047 33.179688 32.748047 C 33.179688 32.748047 40.878906 31.831453 40.878906 25.939453 C 40.879531 23.504453 39.402842 22.210244 37.576172 22.123047 z M 16.005859 27.578125 C 14.505859 27.578125 12.28125 28.784359 12.28125 29.943359 C 12.28125 32.268359 23.529516 34.063203 31.853516 30.658203 L 28.970703 29 C 23.324703 30.877 12.925859 30.099125 16.005859 27.578125 z M 17.388672 32.787109 C 15.339672 32.787109 14.013672 34.107359 14.013672 35.068359 C 14.013672 38.062359 26.234172 38.365172 31.076172 35.326172 L 28 33.283203 C 24.383 34.873203 15.295672 35.091109 17.388672 32.787109 z M 10.761719 35.154297 C 7.4284746 35.087031 5.2617187 36.652062 5.2617188 37.945312 C 5.2617187 44.836312 39.421875 44.503891 39.421875 37.462891 C 39.421875 36.290891 38.099953 35.738609 37.626953 35.474609 C 40.416953 42.202609 9.6816406 41.680984 9.6816406 37.708984 C 9.6816406 36.805984 11.944156 35.921844 14.035156 36.339844 L 12.257812 35.289062 C 11.736937 35.207313 11.237896 35.163906 10.761719 35.154297 z M 42.826172 39.931641 C 37.634172 45.059641 24.470422 46.927766 11.232422 43.759766 C 24.470422 49.398766 42.763172 46.222641 42.826172 39.931641 z"/></svg>